<svg width="20" height="20" viewBox="0 0 20 20" fill="none" xmlns="http://www.w3.org/2000/svg">
<path d="M13.5631 11.7661L10.7746 9.67465V5.41442C10.7746 4.98606 10.4283 4.63981 9.99995 4.63981C9.57159 4.63981 9.22534 4.98606 9.22534 5.41442V10.062C9.22534 10.306 9.33999 10.5361 9.53519 10.6817L12.6336 13.0055C12.773 13.11 12.9357 13.1604 13.0975 13.1604C13.3338 13.1604 13.5662 13.0543 13.718 12.8498C13.9752 12.5081 13.9055 12.0225 13.5631 11.7661Z" fill="white"/>
<path d="M11 2C6.0371 2 2 6.0371 2 11C2 15.9629 6.0371 20 11 20C15.9629 20 20 15.9629 20 11C20 6.0371 15.9629 2 11 2ZM11 18.6057C6.80674 18.6057 3.39426 15.1933 3.39426 11C3.39426 6.80674 6.80674 3.39426 11 3.39426C15.194 3.39426 18.6057 6.80674 18.6057 11C18.6057 15.1933 15.1933 18.6057 11 18.6057Z" fill="white"/>
</svg>
